<?xml version="1.0" encoding="UTF-8" standalone="no"?>
<!DOCTYPE svg PUBLIC "-//W3C//DTD SVG 1.1//EN" "http://www.w3.org/Graphics/SVG/1.1/DTD/svg11.dtd">
<!-- Created with Vectornator (http://vectornator.io/) -->
<svg stroke-miterlimit="10" style="fill-rule:nonzero;clip-rule:evenodd;stroke-linecap:round;stroke-linejoin:round;" version="1.1" viewBox="0 0 4000 800" xml:space="preserve" xmlns="http://www.w3.org/2000/svg" xmlns:xlink="http://www.w3.org/1999/xlink">
<defs>
<clipPath id="TextBounds">
<rect height="595.243" width="4000" x="0" y="250"/>
</clipPath>
</defs>
<g id="Layer-1">
<path d="M1246.05 57.18C1254.64 62.1267 1258.93 69.5933 1258.93 79.58C1258.93 87.8867 1255.99 94.7 1250.11 100.02C1244.23 105.34 1237 108 1228.41 108L1186.83 108L1186.83 10L1225.47 10C1233.87 10 1240.94 12.59 1246.68 17.77C1252.42 22.95 1255.29 29.5533 1255.29 37.58C1255.29 45.7 1252.21 52.2333 1246.05 57.18ZM1225.47 28.06L1206.15 28.06L1206.15 49.62L1225.47 49.62C1228.46 49.62 1230.95 48.5933 1232.96 46.54C1234.97 44.4867 1235.97 41.92 1235.97 38.84C1235.97 35.76 1234.99 33.1933 1233.03 31.14C1231.07 29.0867 1228.55 28.06 1225.47 28.06ZM1228.41 89.94C1231.68 89.94 1234.38 88.8433 1236.53 86.65C1238.68 84.4567 1239.75 81.68 1239.75 78.32C1239.75 75.0533 1238.68 72.3233 1236.53 70.13C1234.38 67.9367 1231.68 66.84 1228.41 66.84L1206.15 66.84L1206.15 89.94L1228.41 89.94ZM1340.85 89.52L1378.23 89.52L1378.23 108L1321.53 108L1321.53 10L1340.85 10L1340.85 89.52ZM1504.95 108L1499.07 90.36L1460.01 90.36L1454.13 108L1433.27 108L1467.57 10L1491.51 10L1525.95 108L1504.95 108ZM1466.17 72.3L1493.05 72.3L1479.61 32.26L1466.17 72.3ZM1628.45 109.96C1613.7 109.96 1601.52 105.06 1591.91 95.26C1582.3 85.46 1577.49 73.3733 1577.49 59C1577.49 44.5333 1582.3 32.4233 1591.91 22.67C1601.52 12.9167 1613.7 8.04 1628.45 8.04C1637.32 8.04 1645.51 10.1167 1653.02 14.27C1660.53 18.4233 1666.39 24.0467 1670.59 31.14L1653.93 40.8C1651.5 36.4133 1648.05 32.9833 1643.57 30.51C1639.09 28.0367 1634.05 26.8 1628.45 26.8C1618.93 26.8 1611.25 29.7867 1605.42 35.76C1599.59 41.7333 1596.67 49.48 1596.67 59C1596.67 68.4267 1599.59 76.1267 1605.42 82.1C1611.25 88.0733 1618.93 91.06 1628.45 91.06C1634.05 91.06 1639.11 89.8233 1643.64 87.35C1648.17 84.8767 1651.6 81.4933 1653.93 77.2L1670.59 86.86C1666.39 93.9533 1660.56 99.5767 1653.09 103.73C1645.62 107.883 1637.41 109.96 1628.45 109.96ZM1809.07 108L1786.81 108L1751.81 62.08L1751.81 108L1732.49 108L1732.49 10L1751.81 10L1751.81 53.26L1785.41 10L1807.67 10L1771.41 57.6L1809.07 108ZM2030.17 108L2007.91 108L1972.91 62.08L1972.91 108L1953.59 108L1953.59 10L1972.91 10L1972.91 53.26L2006.51 10L2028.77 10L1992.51 57.6L2030.17 108ZM2155.21 108L2149.33 90.36L2110.27 90.36L2104.39 108L2083.53 108L2117.83 10L2141.77 10L2176.21 108L2155.21 108ZM2116.43 72.3L2143.31 72.3L2129.87 32.26L2116.43 72.3ZM2331.63 10L2331.63 108L2312.45 108L2312.45 44.44L2284.87 89.94L2282.63 89.94L2255.05 44.58L2255.05 108L2235.73 108L2235.73 10L2255.61 10L2283.75 56.34L2311.75 10L2331.63 10ZM2419.15 89.52L2460.45 89.52L2460.45 108L2399.83 108L2399.83 10L2459.75 10L2459.75 28.48L2419.15 28.48L2419.15 49.34L2456.25 49.34L2456.25 67.54L2419.15 67.54L2419.15 89.52ZM2543.35 89.52L2580.73 89.52L2580.73 108L2524.03 108L2524.03 10L2543.35 10L2543.35 89.52ZM2641.65 10L2660.97 10L2660.97 108L2641.65 108L2641.65 10ZM2792.17 108L2786.29 90.36L2747.23 90.36L2741.35 108L2720.49 108L2754.79 10L2778.73 10L2813.17 108L2792.17 108ZM2753.39 72.3L2780.27 72.3L2766.83 32.26L2753.39 72.3Z" fill="#0e0e0e" fill-rule="nonzero" opacity="1" stroke="none"/>
<g fill="#0e0e0e" opacity="1" stroke="none">
<path clip-path="url(#TextBounds)" d="M1162.4 627.72C1129.12 627.72 1101.12 620.28 1078.4 605.4C1055.68 590.52 1039.68 570.28 1030.4 544.68L1087.04 511.56C1100.16 545.8 1125.92 562.92 1164.32 562.92C1182.88 562.92 1196.48 559.56 1205.12 552.84C1213.76 546.12 1218.08 537.64 1218.08 527.4C1218.08 515.56 1212.8 506.36 1202.24 499.8C1191.68 493.24 1172.8 486.12 1145.6 478.44C1130.56 473.96 1117.84 469.48 1107.44 465C1097.04 460.52 1086.64 454.52 1076.24 447C1065.84 439.48 1057.92 429.96 1052.48 418.44C1047.04 406.92 1044.32 393.48 1044.32 378.12C1044.32 347.72 1055.12 323.48 1076.72 305.4C1098.32 287.32 1124.32 278.28 1154.72 278.28C1181.92 278.28 1205.84 284.92 1226.48 298.2C1247.12 311.48 1263.2 329.96 1274.72 353.64L1219.04 385.8C1205.6 357 1184.16 342.6 1154.72 342.6C1140.96 342.6 1130.16 345.72 1122.32 351.96C1114.48 358.2 1110.56 366.28 1110.56 376.2C1110.56 386.76 1114.96 395.32 1123.76 401.88C1132.56 408.44 1149.44 415.56 1174.4 423.24C1184.64 426.44 1192.4 428.92 1197.68 430.68C1202.96 432.44 1210.16 435.16 1219.28 438.84C1228.4 442.52 1235.44 445.96 1240.4 449.16C1245.36 452.36 1251.04 456.68 1257.44 462.12C1263.84 467.56 1268.72 473.16 1272.08 478.92C1275.44 484.68 1278.32 491.64 1280.72 499.8C1283.12 507.96 1284.32 516.84 1284.32 526.44C1284.32 557.48 1273.04 582.12 1250.48 600.36C1227.92 618.6 1198.56 627.72 1162.4 627.72Z"/>
<path clip-path="url(#TextBounds)" d="M1464.32 374.28C1496.64 374.28 1524.24 386.52 1547.12 411C1570 435.48 1581.44 465.48 1581.44 501C1581.44 536.52 1570 566.52 1547.12 591C1524.24 615.48 1496.64 627.72 1464.32 627.72C1430.72 627.72 1404.8 616.04 1386.56 592.68L1386.56 717L1324.64 717L1324.64 381L1386.56 381L1386.56 409.32C1404.8 385.96 1430.72 374.28 1464.32 374.28ZM1405.28 549.96C1417.76 562.44 1433.6 568.68 1452.8 568.68C1472 568.68 1487.92 562.36 1500.56 549.72C1513.2 537.08 1519.52 520.84 1519.52 501C1519.52 481.16 1513.2 464.92 1500.56 452.28C1487.92 439.64 1472 433.32 1452.8 433.32C1433.6 433.32 1417.76 439.64 1405.28 452.28C1392.8 464.92 1386.56 481.16 1386.56 501C1386.56 520.84 1392.8 537.16 1405.28 549.96Z"/>
<path clip-path="url(#TextBounds)" d="M1687.04 422.28C1692.8 406.92 1702.32 395.4 1715.6 387.72C1728.88 380.04 1743.68 376.2 1760 376.2L1760 445.32C1741.12 443.08 1724.24 446.92 1709.36 456.84C1694.48 466.76 1687.04 483.24 1687.04 506.28L1687.04 621L1625.12 621L1625.12 381L1687.04 381L1687.04 422.28Z"/>
<path clip-path="url(#TextBounds)" d="M1826.72 352.2C1816.48 352.2 1807.6 348.44 1800.08 340.92C1792.56 333.4 1788.8 324.52 1788.8 314.28C1788.8 304.04 1792.56 295.08 1800.08 287.4C1807.6 279.72 1816.48 275.88 1826.72 275.88C1837.28 275.88 1846.32 279.72 1853.84 287.4C1861.36 295.08 1865.12 304.04 1865.12 314.28C1865.12 324.52 1861.36 333.4 1853.84 340.92C1846.32 348.44 1837.28 352.2 1826.72 352.2ZM1796 621L1796 381L1857.92 381L1857.92 621L1796 621Z"/>
<path clip-path="url(#TextBounds)" d="M2048 374.28C2074.24 374.28 2095.92 383.08 2113.04 400.68C2130.16 418.28 2138.72 442.6 2138.72 473.64L2138.72 621L2076.8 621L2076.8 481.32C2076.8 465.32 2072.48 453.08 2063.84 444.6C2055.2 436.12 2043.68 431.88 2029.28 431.88C2013.28 431.88 2000.48 436.84 1990.88 446.76C1981.28 456.68 1976.48 471.56 1976.48 491.4L1976.48 621L1914.56 621L1914.56 381L1976.48 381L1976.48 407.88C1991.52 385.48 2015.36 374.28 2048 374.28Z"/>
<path clip-path="url(#TextBounds)" d="M2412.8 621L2340.8 621L2253.44 512.04L2253.44 621L2191.52 621L2191.52 285L2253.44 285L2253.44 486.6L2336 381L2409.92 381L2313.44 499.56L2412.8 621Z"/>
<path clip-path="url(#TextBounds)" d="M2443.52 621L2443.52 270.6L2505.44 270.6L2505.44 621L2443.52 621Z"/>
<path clip-path="url(#TextBounds)" d="M2614.4 526.44C2622.72 556.52 2645.28 571.56 2682.08 571.56C2705.76 571.56 2723.68 563.56 2735.84 547.56L2785.76 576.36C2762.08 610.6 2727.2 627.72 2681.12 627.72C2641.44 627.72 2609.6 615.72 2585.6 591.72C2561.6 567.72 2549.6 537.48 2549.6 501C2549.6 464.84 2561.44 434.68 2585.12 410.52C2608.8 386.36 2639.2 374.28 2676.32 374.28C2711.52 374.28 2740.56 386.44 2763.44 410.76C2786.32 435.08 2797.76 465.16 2797.76 501C2797.76 509 2796.96 517.48 2795.36 526.44L2614.4 526.44ZM2613.44 478.44L2735.84 478.44C2732.32 462.12 2725.04 449.96 2714 441.96C2702.96 433.96 2690.4 429.96 2676.32 429.96C2659.68 429.96 2645.92 434.2 2635.04 442.68C2624.16 451.16 2616.96 463.08 2613.44 478.44Z"/>
<path clip-path="url(#TextBounds)" d="M2902.88 422.28C2908.64 406.92 2918.16 395.4 2931.44 387.72C2944.72 380.04 2959.52 376.2 2975.84 376.2L2975.84 445.32C2956.96 443.08 2940.08 446.92 2925.2 456.84C2910.32 466.76 2902.88 483.24 2902.88 506.28L2902.88 621L2840.96 621L2840.96 381L2902.88 381L2902.88 422.28Z"/>
</g>
</g>
</svg>
